<?xml version="1.0" encoding="UTF-8" standalone="no"?>
<!-- Created with Inkscape (http://www.inkscape.org/) -->

<svg
   width="128.43321mm"
   height="30.34182mm"
   viewBox="0 0 128.43321 30.34182"
   version="1.1"
   id="svg2538"
   inkscape:version="1.1 (c68e22c387, 2021-05-23)"
   sodipodi:docname="Logo-full-horizontal-black.svg"
   xmlns:inkscape="http://www.inkscape.org/namespaces/inkscape"
   xmlns:sodipodi="http://sodipodi.sourceforge.net/DTD/sodipodi-0.dtd"
   xmlns="http://www.w3.org/2000/svg"
   xmlns:svg="http://www.w3.org/2000/svg">
  <sodipodi:namedview
     id="namedview2540"
     pagecolor="#ffffff"
     bordercolor="#666666"
     borderopacity="1.0"
     inkscape:pageshadow="2"
     inkscape:pageopacity="0.0"
     inkscape:pagecheckerboard="true"
     inkscape:document-units="mm"
     showgrid="false"
     inkscape:zoom="0.77771465"
     inkscape:cx="412.10488"
     inkscape:cy="346.52813"
     inkscape:window-width="2560"
     inkscape:window-height="1369"
     inkscape:window-x="-8"
     inkscape:window-y="-8"
     inkscape:window-maximized="1"
     inkscape:current-layer="layer1" />
  <defs
     id="defs2535" />
  <g
     inkscape:label="Layer 1"
     inkscape:groupmode="layer"
     id="layer1"
     transform="translate(4.000109,-56.952801)">
    <g
       id="g1047"
       transform="translate(-44.783506,-10.067668)">
      <g
         aria-label="nihito.io"
         id="text10031-7-6-0-0"
         style="font-size:21.2533px;line-height:1.25;stroke-width:0.53133">
        <path
           d="M 87.585402,90.177444 V 88.47552 l 1.50475,-0.311328 v -7.191668 l -1.618903,-0.311328 v -1.712301 h 4.234055 l 0.134909,1.618903 q 0.56039,-0.86134 1.390597,-1.338709 0.840584,-0.487746 1.899098,-0.487746 1.691547,0 2.646285,1.068891 0.965116,1.058514 0.965116,3.331206 v 5.022752 l 1.504751,0.311328 v 1.701924 H 94.528008 V 88.47552 l 1.380219,-0.311328 v -5.001997 q 0,-1.2038 -0.477369,-1.701924 -0.477369,-0.508502 -1.421729,-0.508502 -0.705676,0 -1.234933,0.311328 -0.518879,0.30095 -0.86134,0.861339 v 6.039756 l 1.328331,0.311328 v 1.701924 z"
           style="font-weight:600;font-family:'Roboto Slab';-inkscape-font-specification:'Roboto Slab Semi-Bold'"
           id="path2641" />
        <path
           d="M 101.24231,90.177444 V 88.47552 l 1.50475,-0.311328 v -7.191668 l -1.62928,-0.311328 v -1.712301 h 4.45198 v 9.215297 l 1.50475,0.311328 v 1.701924 z m 1.40097,-13.688038 v -2.500998 h 2.92648 v 2.500998 z"
           style="font-weight:600;font-family:'Roboto Slab';-inkscape-font-specification:'Roboto Slab Semi-Bold'"
           id="path2643" />
        <path
           d="M 107.98774,90.177444 V 88.47552 l 1.50475,-0.311328 V 76.012037 l -1.63966,-0.311327 v -1.712302 h 4.45199 v 6.402971 q 0.53963,-0.778319 1.32833,-1.214178 0.79907,-0.435858 1.8057,-0.435858 1.72268,0 2.70855,1.120779 0.99625,1.110402 0.99625,3.445359 v 4.856711 l 1.50475,0.311328 v 1.701924 h -5.71805 V 88.47552 l 1.39059,-0.311328 v -4.877466 q 0,-1.255688 -0.48774,-1.795322 -0.48775,-0.539635 -1.43211,-0.539635 -0.66417,0 -1.2038,0.290572 -0.53963,0.280195 -0.89247,0.809452 v 6.112399 l 1.39059,0.311328 v 1.701924 z"
           style="font-weight:600;font-family:'Roboto Slab';-inkscape-font-specification:'Roboto Slab Semi-Bold'"
           id="path2645" />
        <path
           d="M 121.62389,90.177444 V 88.47552 l 1.50475,-0.311328 v -7.191668 l -1.62928,-0.311328 v -1.712301 h 4.45198 v 9.215297 l 1.50475,0.311328 v 1.701924 z m 1.40097,-13.688038 v -2.500998 h 2.92648 v 2.500998 z"
           style="font-weight:600;font-family:'Roboto Slab';-inkscape-font-specification:'Roboto Slab Semi-Bold'"
           id="path2647" />
        <path
           d="m 132.86282,90.384996 q -1.49437,0 -2.32458,-0.830207 -0.81983,-0.840584 -0.81983,-2.656662 v -5.946358 h -1.58777 v -2.002874 h 1.58777 v -2.739684 h 2.81233 v 2.739684 h 2.14816 v 2.002874 h -2.14816 v 5.946358 q 0,0.684921 0.29057,0.985871 0.29057,0.30095 0.77832,0.30095 0.26982,0 0.59152,-0.04151 0.32171,-0.04151 0.53964,-0.08302 l 0.26981,2.002874 q -0.46699,0.134909 -1.03776,0.228307 -0.56039,0.0934 -1.10002,0.0934 z"
           style="font-weight:600;font-family:'Roboto Slab';-inkscape-font-specification:'Roboto Slab Semi-Bold'"
           id="path2649" />
        <path
           d="m 141.21787,90.395374 q -1.65004,0 -2.8227,-0.726431 -1.17267,-0.726431 -1.8057,-2.013252 -0.63304,-1.297199 -0.63304,-2.978368 v -0.217929 q 0,-1.670792 0.63304,-2.957613 0.63303,-1.286821 1.8057,-2.02363 1.17266,-0.736808 2.80194,-0.736808 1.63966,0 2.81233,0.736808 1.17267,0.726432 1.79532,2.013253 0.63304,1.28682 0.63304,2.96799 v 0.217929 q 0,1.681169 -0.63304,2.978368 -0.62265,1.286821 -1.79532,2.013252 -1.17267,0.726431 -2.79157,0.726431 z m 0,-2.168916 q 0.81983,0 1.34909,-0.446236 0.53963,-0.446237 0.79907,-1.245311 0.25944,-0.809452 0.25944,-1.857588 v -0.217929 q 0,-1.037759 -0.25944,-1.836833 -0.25944,-0.799075 -0.79907,-1.245311 -0.53964,-0.456614 -1.36985,-0.456614 -0.8302,0 -1.36984,0.456614 -0.52925,0.446236 -0.78869,1.245311 -0.25944,0.799074 -0.25944,1.836833 v 0.217929 q 0,1.058514 0.25944,1.857588 0.25944,0.799074 0.79907,1.245311 0.53964,0.446236 1.38022,0.446236 z"
           style="font-weight:600;font-family:'Roboto Slab';-inkscape-font-specification:'Roboto Slab Semi-Bold'"
           id="path2651" />
        <path
           d="m 148.6586,90.177444 v -1.535883 h 1.18305 v 1.535883 z"
           style="font-weight:200;-inkscape-font-specification:'Roboto Slab Ultra-Light'"
           id="path2653" />
        <path
           d="m 152.74737,90.177444 v -0.747186 l 1.69155,-0.07264 v -9.588891 l -1.69155,-0.07264 v -0.747186 h 2.62553 v 10.40872 l 1.69155,0.07264 v 0.747186 z m 1.52551,-14.549378 v -1.639658 h 1.10002 v 1.639658 z"
           style="font-weight:200;-inkscape-font-specification:'Roboto Slab Ultra-Light'"
           id="path2655" />
        <path
           d="m 164.28725,90.395374 q -1.484,0 -2.60477,-0.716054 -1.11041,-0.726431 -1.73306,-1.992497 -0.62266,-1.276443 -0.62266,-2.926479 v -0.383971 q 0,-1.650037 0.62266,-2.916102 0.62265,-1.276444 1.73306,-1.992497 1.1104,-0.726431 2.58401,-0.726431 1.484,0 2.5944,0.726431 1.1104,0.716053 1.73306,1.982119 0.62265,1.266066 0.62265,2.92648 v 0.383971 q 0,1.650036 -0.62265,2.926479 -0.62266,1.266066 -1.73306,1.992497 -1.10002,0.716054 -2.57364,0.716054 z m 0,-0.81983 q 1.23493,0 2.12741,-0.64341 0.89247,-0.643411 1.38021,-1.733057 0.48775,-1.100025 0.48775,-2.438733 v -0.383971 q 0,-1.328331 -0.49812,-2.417978 -0.48775,-1.089647 -1.3906,-1.743435 -0.89247,-0.653788 -2.12741,-0.653788 -1.23493,0 -2.13778,0.653788 -0.89247,0.653788 -1.38022,1.743435 -0.48774,1.089647 -0.48774,2.417978 v 0.383971 q 0,1.349086 0.48774,2.44911 0.48775,1.089647 1.3906,1.733058 0.90285,0.633032 2.14816,0.633032 z"
           style="font-weight:200;-inkscape-font-specification:'Roboto Slab Ultra-Light'"
           id="path2657" />
      </g>
      <path
         id="path846-4-9"
         style="stroke-width:0.760203"
         d="m 49.542037,67.020469 -4.26434,7.38611 c 1.729417,0.89617 3.676182,1.43314 5.74952,1.48157 1.268952,-2.72045 2.051275,-5.71324 2.23914,-8.86768 z m 5.226553,0 c -0.175234,3.11172 -0.896938,6.07831 -2.073776,8.8036 2.050204,-0.20799 3.959921,-0.88491 5.622396,-1.9203 -0.796239,-2.1648 -1.283353,-4.47726 -1.418518,-6.8833 z m 3.644222,0 c 0.124976,2.08353 0.518652,4.09408 1.173573,5.98517 1.923737,-1.53903 3.399997,-3.60867 4.223517,-5.98517 z m 6.9789,0 c -0.92569,3.00167 -2.78815,5.59559 -5.24516,7.43831 0.42991,1.00717 0.93183,1.97586 1.49862,2.90059 2.92921,-1.5201 6.03012,-2.74885 9.2537,-3.68969 l -3.83853,-6.64921 z m 6.273,7.97522 c -3.20615,0.90848 -6.28457,2.11997 -9.19375,3.61684 1.20189,1.69484 2.63452,3.21383 4.2509,4.51393 1.68803,-2.36612 3.73929,-4.45047 6.05648,-6.20117 z m -12.77906,0.31006 c -2.039845,1.22404 -4.399582,1.967 -6.922574,2.07223 -0.760132,1.48155 -1.658462,2.88038 -2.677875,4.1801 1.033272,0.61707 2.001782,1.33141 2.89233,2.13114 2.52222,-2.12224 5.250484,-4.00675 8.150409,-5.62033 -0.53882,-0.88473 -1.020092,-1.80794 -1.44229,-2.76314 z m -14.355196,0.39533 -1.99471,3.45508 c 1.916239,0.2839 3.739451,0.85463 5.418272,1.67897 0.871167,-1.0883 1.651466,-2.25243 2.329059,-3.48144 -2.066809,-0.14773 -4.009025,-0.73613 -5.752621,-1.65261 z m 28.994096,2.51612 c -2.1465,1.64408 -4.04208,3.59916 -5.60999,5.80533 1.61418,1.13042 3.39128,2.03917 5.27926,2.71612 l 2.62516,-4.54701 z m -12.37702,1.10381 c -2.808457,1.55354 -5.451088,3.36862 -7.896161,5.41311 1.655932,1.74651 2.975271,3.81497 3.854545,6.10092 1.234652,-0.18036 2.49678,-0.27492 3.781166,-0.27492 0.67681,0 1.3479,0.0255 2.01176,0.0765 0.74108,-2.22433 1.74885,-4.3268 2.98638,-6.26939 -1.81199,-1.44289 -3.40941,-3.14377 -4.73769,-5.0462 z m -19.420006,1.23507 -0.944129,1.63556 2.000912,3.46593 c 1.522394,-1.05754 2.923648,-2.27719 4.167187,-3.64473 -1.619483,-0.74834 -3.37676,-1.24981 -5.22397,-1.45676 z m 6.589778,2.16369 c -1.412031,1.60038 -3.021962,3.02031 -4.784719,4.23385 l 1.998842,3.46232 c 1.689037,-2.05097 3.528158,-3.97388 5.509742,-5.74177 -0.838983,-0.73663 -1.750732,-1.39257 -2.723865,-1.9544 z m 18.768368,2.543 c -1.08709,1.72396 -1.98358,3.57947 -2.66134,5.53816 1.94509,0.26525 3.82101,0.74807 5.60483,1.41955 l 2.40553,-4.16719 c -1.90746,-0.7103 -3.70694,-1.64265 -5.34902,-2.79052 z m -14.964466,0.44545 c -2.09785,1.86253 -4.030919,3.90452 -5.790861,6.09162 l 1.365808,2.36523 c 2.413256,-1.42719 5.074002,-2.47981 7.905977,-3.06597 -0.814152,-2.01807 -2.002419,-3.84408 -3.480924,-5.39088 z m 8.765876,6.35155 c -1.117164,0 -2.216047,0.0765 -3.29334,0.22117 0.471275,1.61382 0.725831,3.31886 0.736388,5.08135 h 3.214272 c 0.143,-1.80179 0.44556,-3.55915 0.90847,-5.25136 -0.51779,-0.0326 -1.03971,-0.0512 -1.56579,-0.0512 z m 3.07888,0.19223 c -0.466,1.64379 -0.77016,3.35445 -0.91622,5.11029 h 4.0106 l 2.2102,-3.82768 c -1.68938,-0.61501 -3.4644,-1.05211 -5.30458,-1.28261 z m -7.860502,0.27544 c -2.749288,0.54356 -5.325763,1.55663 -7.659481,2.93625 l 1.096058,1.8986 h 7.288442 c -0.01089,-1.68086 -0.261754,-3.30378 -0.725019,-4.83485 z" />
    </g>
  </g>
</svg>
